<svg width="30" height="28" viewBox="0 0 30 28" fill="none" xmlns="http://www.w3.org/2000/svg">
<path d="M27.0795 23.4004H2.88477V16.9883C2.88477 15.093 4.42119 13.5566 6.31646 13.5566H23.6478C25.543 13.5566 27.0795 15.093 27.0795 16.9883V23.4004V23.4004Z" stroke="white" stroke-width="2" stroke-miterlimit="10" stroke-linecap="round" stroke-linejoin="round"/>
<path d="M1 23.4004C1 25.1738 2.80884 26.6115 5.04014 26.6115H24.9599C27.1912 26.6115 29 25.1738 29 23.4004H1Z" stroke="white" stroke-width="2" stroke-miterlimit="10" stroke-linecap="round" stroke-linejoin="round"/>
<path d="M2.88477 19.1496C2.88477 19.1496 6.48694 20.5444 9.63664 18.6389C10.3765 18.1913 11.3277 18.2643 11.9736 18.8392C13.0185 19.7691 14.8711 20.8976 17.694 20.8727C18.3298 20.8671 18.9216 20.5363 19.2804 20.0113C20.3881 18.3903 23.2806 15.0706 27.0795 17.6421" stroke="white" stroke-width="2" stroke-miterlimit="10" stroke-linecap="round" stroke-linejoin="round"/>
<path d="M15.3583 9.3942H14.6046C13.8446 9.3942 13.2285 10.0103 13.2285 10.7703V13.5566H16.7344V10.7703C16.7344 10.0103 16.1183 9.3942 15.3583 9.3942Z" stroke="white" stroke-width="2" stroke-miterlimit="10" stroke-linecap="round" stroke-linejoin="round"/>
<path d="M14.8145 1C14.8145 1 13.732 2.9607 13.3813 4.53656C13.1385 5.62757 13.7137 6.77201 14.7834 7.096L14.8145 7.10521C14.8145 7.10521 14.8665 7.10939 14.9542 7.10695C16.305 7.06933 17.0797 5.54756 16.3652 4.40057C15.8624 3.59338 15.1464 2.29669 14.8145 1Z" stroke="white" stroke-width="2" stroke-miterlimit="10" stroke-linecap="round" stroke-linejoin="round"/>
<path d="M15 8L15 9" stroke="white" stroke-width="2" stroke-miterlimit="10" stroke-linecap="round" stroke-linejoin="round"/>
</svg>
