<svg width="20" height="20" viewBox="0 0 20 20" fill="none" xmlns="http://www.w3.org/2000/svg">
<path d="M1.00003 10C0.996386 11.3975 1.3229 12.7761 1.95297 14.0235C2.70004 15.5183 3.84852 16.7756 5.26978 17.6545C6.69103 18.5334 8.32892 18.9993 10 19C11.3975 19.0036 12.7761 18.6771 14.0235 18.047L19 19L18.047 14.0235C18.6771 12.7761 19.0036 11.3975 19 10C18.9993 8.32893 18.5334 6.69103 17.6545 5.26977C16.7756 3.84852 15.5183 2.70004 14.0235 1.95297C12.7761 1.3229 11.3975 0.996386 10 1.00003H9.47059C7.26364 1.12179 5.17915 2.0533 3.61623 3.61623C2.0533 5.17915 1.12179 7.26364 1.00003 9.47059V10Z" stroke="#FE3686" stroke-width="2" stroke-linecap="round" stroke-linejoin="round"/>
</svg>
