<svg width="23" height="20" viewBox="0 0 23 20" fill="none" xmlns="http://www.w3.org/2000/svg">
<path d="M10.6895 3.22867L11.4997 4.34828L12.3098 3.22872C13.2892 1.8754 14.8638 1 16.6401 1C19.5941 1 22 3.41223 22 6.4C22 7.55545 21.4189 8.92906 20.3824 10.4181C19.3611 11.8852 17.9802 13.3477 16.5694 14.6578C15.1632 15.9636 13.7529 17.0945 12.6919 17.9C12.2044 18.2702 11.7922 18.5705 11.4903 18.7862C11.1895 18.578 10.7805 18.2887 10.2972 17.9316C9.23775 17.1486 7.82952 16.045 6.42551 14.7582C5.01705 13.4674 3.63894 12.0158 2.61982 10.5393C1.58882 9.04558 1 7.63359 1 6.39995C1 4.42675 1.63056 3.11546 2.53678 2.2887C3.45874 1.44756 4.78494 1 6.3593 1C8.13607 1 9.71037 1.8754 10.6895 3.22867Z" stroke="white" stroke-width="2"/>
</svg>
