<svg width="24" height="31" viewBox="0 0 24 31" fill="none" xmlns="http://www.w3.org/2000/svg">
<path d="M4.22256 28.6986C4.06978 28.6988 3.91847 28.6689 3.77726 28.6106C3.63605 28.5523 3.50772 28.4667 3.39961 28.3588C3.29151 28.2508 3.20574 28.1226 3.14723 27.9815C3.08871 27.8404 3.05859 27.6891 3.05859 27.5363V4.26729C3.05859 3.95858 3.18123 3.66253 3.39951 3.44424C3.6178 3.22595 3.91385 3.10332 4.22256 3.10332C4.53126 3.10332 4.82732 3.22595 5.0456 3.44424C5.26389 3.66253 5.38652 3.95858 5.38652 4.26729V27.5363C5.38652 27.6891 5.3564 27.8404 5.29789 27.9815C5.23937 28.1226 5.15361 28.2508 5.0455 28.3588C4.93739 28.4667 4.80907 28.5523 4.66786 28.6106C4.52665 28.6689 4.37533 28.6988 4.22256 28.6986Z" fill="white"/>
<path d="M7.3244 4.65585H1.11943C0.818661 4.64434 0.534044 4.51676 0.325321 4.29989C0.116598 4.08303 0 3.79374 0 3.49274C0 3.19175 0.116598 2.90246 0.325321 2.68559C0.534044 2.46873 0.818661 2.34115 1.11943 2.32963H7.3244C7.48089 2.32364 7.63697 2.34929 7.78331 2.40504C7.92966 2.4608 8.06324 2.54551 8.17608 2.6541C8.28891 2.7627 8.37867 2.89295 8.43998 3.03705C8.50129 3.18115 8.53289 3.33614 8.53289 3.49274C8.53289 3.64935 8.50129 3.80434 8.43998 3.94844C8.37867 4.09254 8.28891 4.22279 8.17608 4.33139C8.06324 4.43998 7.92966 4.52469 7.78331 4.58044C7.63697 4.6362 7.48089 4.66185 7.3244 4.65585ZM7.3244 28.6986H1.11943C0.818661 28.6871 0.534044 28.5595 0.325321 28.3426C0.116598 28.1258 0 27.8365 0 27.5355C0 27.2345 0.116598 26.9452 0.325321 26.7283C0.534044 26.5115 0.818661 26.3839 1.11943 26.3724H7.3244C7.48089 26.3664 7.63697 26.392 7.78331 26.4478C7.92966 26.5035 8.06324 26.5882 8.17608 26.6968C8.28891 26.8054 8.37867 26.9357 8.43998 27.0798C8.50129 27.2239 8.53289 27.3789 8.53289 27.5355C8.53289 27.6921 8.50129 27.8471 8.43998 27.9912C8.37867 28.1353 8.28891 28.2655 8.17608 28.3741C8.06324 28.4827 7.92966 28.5674 7.78331 28.6232C7.63697 28.6789 7.48089 28.7046 7.3244 28.6986ZM17.4081 10.0854C16.4106 10.0857 15.4354 9.79024 14.6059 9.23627C13.7764 8.6823 13.1298 7.89475 12.7479 6.97325C12.366 6.05175 12.266 5.03769 12.4605 4.05934C12.655 3.08099 13.1353 2.18231 13.8407 1.47698C14.546 0.771639 15.4447 0.291333 16.423 0.0968133C17.4014 -0.0977062 18.4154 0.0022998 19.3369 0.384181C20.2584 0.766063 21.046 1.41266 21.6 2.24219C22.1539 3.07172 22.4494 4.04691 22.4491 5.04441C22.4491 6.38137 21.918 7.66356 20.9726 8.60893C20.0273 9.55431 18.7451 10.0854 17.4081 10.0854ZM17.4081 2.32963C16.8712 2.32963 16.3463 2.48885 15.8999 2.78715C15.4534 3.08546 15.1054 3.50945 14.9 4.00551C14.6945 4.50157 14.6407 5.04742 14.7455 5.57404C14.8502 6.10065 15.1088 6.58438 15.4885 6.96405C15.8681 7.34372 16.3519 7.60227 16.8785 7.70702C17.4051 7.81177 17.9509 7.75801 18.447 7.55254C18.9431 7.34706 19.3671 6.9991 19.6654 6.55266C19.9637 6.10622 20.1229 5.58134 20.1229 5.04441C20.1229 4.32441 19.8369 3.63389 19.3277 3.12477C18.8186 2.61565 18.1281 2.32963 17.4081 2.32963Z" fill="white"/>
<path d="M22.8375 20.1674H11.9784C11.8256 20.1676 11.6743 20.1377 11.5331 20.0794C11.3919 20.0211 11.2636 19.9355 11.1555 19.8276C11.0474 19.7196 10.9616 19.5914 10.9031 19.4503C10.8446 19.3092 10.8145 19.1579 10.8145 19.0051V12.8002C10.8167 11.8752 11.1851 10.9888 11.8392 10.3347C12.4932 9.68067 13.3797 9.31224 14.3046 9.30999H20.5096C21.4347 9.31179 22.3214 9.68008 22.9755 10.3342C23.6297 10.9884 23.998 11.8751 23.9998 12.8002V19.0051C23.9998 19.3134 23.8773 19.609 23.6594 19.827C23.4414 20.0449 23.1458 20.1674 22.8375 20.1674ZM13.1424 17.8412H21.6736V12.8002C21.6736 12.4915 21.5509 12.1954 21.3326 11.9771C21.1144 11.7588 20.8183 11.6362 20.5096 11.6362H14.3046C14.1519 11.6362 14.0006 11.6663 13.8595 11.7248C13.7183 11.7834 13.5901 11.8691 13.4822 11.9772C13.3742 12.0853 13.2887 12.2137 13.2304 12.3549C13.1721 12.4961 13.1422 12.6474 13.1424 12.8002V17.8412Z" fill="white"/>
<path d="M20.5098 30.2511H14.3048C14.1521 30.2511 14.0008 30.221 13.8597 30.1625C13.7185 30.104 13.5903 30.0182 13.4824 29.9101C13.3744 29.802 13.2889 29.6737 13.2306 29.5324C13.1723 29.3912 13.1424 29.2399 13.1426 29.0871V19.0051C13.1424 18.8524 13.1723 18.7011 13.2306 18.5598C13.2889 18.4186 13.3744 18.2903 13.4824 18.1822C13.5903 18.0741 13.7185 17.9883 13.8597 17.9298C14.0008 17.8713 14.1521 17.8412 14.3048 17.8412H20.5098C20.8185 17.8412 21.1146 17.9638 21.3328 18.1821C21.5511 18.4004 21.6738 18.6964 21.6738 19.0051V29.0871C21.6738 29.3958 21.5511 29.6919 21.3328 29.9102C21.1146 30.1285 20.8185 30.2511 20.5098 30.2511ZM15.4688 27.9232H19.3475V20.1674H15.4688V27.9232Z" fill="white"/>
</svg>
