<svg width="23" height="27" viewBox="0 0 23 27" fill="none" xmlns="http://www.w3.org/2000/svg">
<path d="M19.1903 0.166626H3.95211C2.94176 0.166626 1.97279 0.567987 1.25837 1.28241C0.543939 1.99684 0.142578 2.96581 0.142578 3.97616V23.0238C0.142578 24.0342 0.543939 25.0032 1.25837 25.7176C1.97279 26.432 2.94176 26.8334 3.95211 26.8334H19.1903C20.2006 26.8334 21.1696 26.432 21.884 25.7176C22.5984 25.0032 22.9998 24.0342 22.9998 23.0238V3.97616C22.9998 2.96581 22.5984 1.99684 21.884 1.28241C21.1696 0.567987 20.2006 0.166626 19.1903 0.166626ZM21.095 23.0238C21.095 23.529 20.8943 24.0135 20.5371 24.3707C20.1799 24.7279 19.6954 24.9286 19.1903 24.9286H3.95211C3.44694 24.9286 2.96245 24.7279 2.60524 24.3707C2.24803 24.0135 2.04735 23.529 2.04735 23.0238V3.97616C2.04735 3.47099 2.24803 2.9865 2.60524 2.62929C2.96245 2.27207 3.44694 2.07139 3.95211 2.07139H19.1903C19.6954 2.07139 20.1799 2.27207 20.5371 2.62929C20.8943 2.9865 21.095 3.47099 21.095 3.97616V23.0238ZM11.5712 3.02378C9.91267 3.02799 8.29617 3.54573 6.94382 4.50585C5.59147 5.46597 4.56965 6.82134 4.01878 8.3857C3.94107 8.58337 3.93167 8.80134 3.99207 9.00496C4.05247 9.20859 4.1792 9.38618 4.35211 9.50951L11.0188 14.2714C11.1801 14.3863 11.3732 14.448 11.5712 14.448C11.7692 14.448 11.9623 14.3863 12.1236 14.2714L18.7903 9.50951C18.9632 9.38618 19.0899 9.20859 19.1503 9.00496C19.2107 8.80134 19.2013 8.58337 19.1236 8.3857C18.5727 6.82134 17.5509 5.46597 16.1986 4.50585C14.8462 3.54573 13.2297 3.02799 11.5712 3.02378ZM13.2093 11.1571L11.5712 12.3286L9.93308 11.1571C10.4191 10.836 10.9887 10.6648 11.5712 10.6648C12.1537 10.6648 12.7233 10.836 13.2093 11.1571ZM14.8093 10.0238C14.1728 9.42417 13.3809 9.01503 12.5236 8.84284V7.7857C12.5236 7.53311 12.4232 7.29087 12.2446 7.11226C12.066 6.93365 11.8238 6.83331 11.5712 6.83331C11.3186 6.83331 11.0764 6.93365 10.8977 7.11226C10.7191 7.29087 10.6188 7.53311 10.6188 7.7857V8.84284C9.76146 9.01503 8.96958 9.42417 8.33308 10.0238L6.09498 8.41427C6.58263 7.3736 7.35673 6.49342 8.32659 5.87683C9.29645 5.26024 10.4219 4.93277 11.5712 4.93277C12.7204 4.93277 13.8459 5.26024 14.8158 5.87683C15.7856 6.49342 16.5597 7.3736 17.0474 8.41427L14.8093 10.0238Z" fill="white"/>
</svg>
